<svg width="38" height="44" viewBox="0 0 38 44" fill="none" xmlns="http://www.w3.org/2000/svg">
<path d="M36.1934 37.8167C36.1932 39.4732 34.8499 40.8164 33.1934 40.8167H3C1.34326 40.8167 0.000179219 39.4734 0 37.8167V13.5413H36.1934V37.8167ZM17.4014 15.5168C11.1428 15.7432 6.22918 20.8897 6.45117 27.0344C6.67338 33.1792 11.9455 37.9578 18.2041 37.7317C18.9883 37.7033 19.7524 37.5973 20.4873 37.4221C20.7557 37.358 20.9214 37.0881 20.8574 36.8196C20.7932 36.5511 20.5234 36.3854 20.2549 36.4495C19.5839 36.6094 18.8858 36.7057 18.168 36.7317C12.4397 36.9386 7.65167 32.5698 7.4502 26.9983C7.24894 21.4269 11.7092 16.724 17.4375 16.5168C23.1659 16.3098 27.9538 20.6787 28.1553 26.2502C28.1654 26.5259 28.3972 26.7414 28.6729 26.7317C28.9487 26.7217 29.1641 26.4899 29.1543 26.2141C28.9321 20.0693 23.66 15.2907 17.4014 15.5168ZM17.752 18.5344C17.4758 18.5344 17.252 18.7583 17.252 19.0344V24.3254C16.2674 24.5664 15.5371 25.4349 15.5371 26.4719L15.5488 26.6985C15.5867 27.0626 15.717 27.3995 15.9131 27.6897L13.168 30.2278C12.9653 30.4151 12.9525 30.731 13.1396 30.9338C13.3271 31.1366 13.6439 31.1496 13.8467 30.9622L16.6445 28.3743C16.921 28.5355 17.235 28.6416 17.5713 28.675L17.8027 28.6868C18.9758 28.6868 19.9404 27.815 20.0566 26.6985L20.0684 26.4719C20.0684 25.3989 19.2884 24.5036 18.252 24.3V19.0344C18.2519 18.7583 18.028 18.5344 17.752 18.5344ZM17.8027 25.2571C18.5235 25.2571 19.0684 25.8225 19.0684 26.4719C19.0682 27.1213 18.5234 27.6868 17.8027 27.6868C17.0824 27.6864 16.5372 27.1211 16.5371 26.4719C16.5371 25.8227 17.0823 25.2574 17.8027 25.2571ZM33.1934 4.98462C34.85 4.98487 36.1934 6.32792 36.1934 7.98462V12.5413H0V7.98462C0 6.32776 1.34315 4.98462 3 4.98462H33.1934Z" fill="#0A6913"/>
<path d="M29.8735 27.8438C34.0964 27.8439 37.5005 31.1871 37.5005 35.2871C37.5004 39.3871 34.0964 42.7304 29.8735 42.7305C25.6506 42.7305 22.2467 39.3871 22.2466 35.2871C22.2466 31.187 25.6506 27.8438 29.8735 27.8438Z" fill="#0A6913" stroke="#45E855"/>
<path d="M26.3988 35.039L28.9436 38.1027C28.9844 38.1518 29.0601 38.1506 29.0994 38.1003L33.4951 32.4628" stroke="#45E855" stroke-linecap="round"/>
<rect x="23.5247" y="0.77002" width="4.96663" height="9.35105" rx="2.48332" fill="#0A6913"/>
<rect x="7.73291" y="0.77002" width="4.96663" height="9.35105" rx="2.48332" fill="#0A6913"/>
</svg>
