<svg width="38" height="37" viewBox="0 0 38 37" fill="none" xmlns="http://www.w3.org/2000/svg">
<g clip-path="url(#clip0_329_1132)">
<path d="M19.0017 0C29.4954 0 38.0017 8.28245 38.0017 18.5C38.0017 28.7176 29.4954 37 19.0017 37C15.644 37.0056 12.3452 36.1404 9.44474 34.4933L0.00933835 37L2.57814 27.8092C0.885159 24.9841 -0.00414611 21.7708 0.00173799 18.5C0.00173799 8.28245 8.50804 0 19.0017 0ZM12.5265 9.805L12.1465 9.8198C11.9009 9.83628 11.6608 9.89912 11.4397 10.0048C11.2337 10.1186 11.0456 10.2607 10.8811 10.4266C10.6531 10.6357 10.5239 10.817 10.3852 10.9927C9.68247 11.8824 9.30409 12.9746 9.30984 14.097C9.31364 15.0035 9.55684 15.886 9.93684 16.7111C10.7139 18.3798 11.9926 20.1465 13.6798 21.7838C14.0864 22.1778 14.4854 22.5737 14.9148 22.9419C17.0114 24.7389 19.5096 26.035 22.2108 26.727L23.29 26.8879C23.6415 26.9064 23.993 26.8805 24.3464 26.8639C24.8997 26.8354 25.4399 26.6896 25.9291 26.4365C26.1777 26.3113 26.4206 26.1755 26.6568 26.0295C26.6568 26.0295 26.7373 25.9765 26.8943 25.863C27.1508 25.678 27.3085 25.5467 27.5213 25.3302C27.6809 25.1699 27.8139 24.9836 27.9203 24.7715C28.0685 24.47 28.2167 23.8946 28.2775 23.4155C28.3231 23.0492 28.3098 22.8494 28.3041 22.7254C28.2965 22.5275 28.1274 22.3221 27.9431 22.2352L26.8373 21.7523C26.8373 21.7523 25.1843 21.0512 24.1735 20.6035C24.0677 20.5586 23.9544 20.5329 23.8391 20.5276C23.7091 20.5144 23.5777 20.5285 23.4538 20.569C23.3299 20.6096 23.2164 20.6756 23.1209 20.7626C23.1114 20.7589 22.9841 20.8643 21.6104 22.4849C21.5316 22.5881 21.423 22.666 21.2985 22.7089C21.1739 22.7517 21.0391 22.7574 20.9112 22.7254C20.7874 22.6933 20.6661 22.6525 20.5483 22.6033C20.3127 22.5071 20.231 22.4701 20.0695 22.4035C18.9787 21.9408 17.969 21.3147 17.077 20.548C16.8376 20.3445 16.6153 20.1225 16.3873 19.9079C15.6399 19.2108 14.9885 18.4223 14.4493 17.5621L14.3372 17.3863C14.2579 17.2675 14.1929 17.1403 14.1434 17.0071C14.0712 16.7351 14.2593 16.5168 14.2593 16.5168C14.2593 16.5168 14.721 16.0247 14.9357 15.7583C15.1447 15.4993 15.3214 15.2477 15.4354 15.0683C15.6596 14.7168 15.7299 14.356 15.6121 14.0767C15.0801 12.8113 14.5304 11.5526 13.9629 10.3008C13.8508 10.0529 13.5183 9.8753 13.2162 9.84015C13.1136 9.82782 13.011 9.81795 12.9084 9.81055C12.6533 9.7963 12.3975 9.79878 12.1427 9.81795L12.5265 9.805Z" fill="#02550A"/>
</g>
<defs>
<clipPath id="clip0_329_1132">
<rect width="38" height="37" fill="white"/>
</clipPath>
</defs>
</svg>
