<svg width="32" height="48" viewBox="0 0 32 48" fill="none" xmlns="http://www.w3.org/2000/svg">
<rect x="7.72998" y="18.2095" width="16.0957" height="4.34343" rx="2.17172" fill="#0A6913"/>
<path d="M7.25707 33.8955H24.2773L29.2703 43.5789C30.2998 45.5755 28.8503 47.9537 26.6039 47.9537H4.92478C2.67771 47.9537 1.22828 45.5744 2.25901 43.5776L7.25707 33.8955Z" fill="#0A6913"/>
<path d="M21.7146 19.8042C21.7067 19.837 20.6769 24.1181 21.1853 26.7866C21.5776 28.8454 22.9248 31.4833 23.7058 32.896H7.80054C8.55158 31.4726 9.85998 28.8099 10.2693 26.7866C10.8079 24.1235 9.84793 19.837 9.84058 19.8042H21.7146Z" fill="#0A6913"/>
<path d="M27.3142 0.234619C27.601 -0.068441 28.1562 -0.00718604 28.3142 0.426025L28.3416 0.524658L28.49 1.34106C28.5464 1.68711 28.605 2.0955 28.6511 2.52954C28.7424 3.38936 28.7893 4.38949 28.656 5.21802C28.4811 6.30501 28.2675 7.22611 27.8904 8.0813C27.5105 8.94245 26.9741 9.71509 26.1804 10.5256C24.7487 11.9878 23.5094 12.4347 21.6501 12.9934C20.3216 13.3926 18.4654 13.4454 17.3601 13.4377C17.0614 13.4359 16.822 13.6656 16.8074 13.9397L16.6755 16.4319L16.573 18.3694L15.5876 18.4622V18.4612C15.5874 18.4601 15.5864 18.4579 15.5857 18.4553C15.5843 18.4497 15.582 18.4407 15.5789 18.429C15.5725 18.4049 15.5627 18.3684 15.5496 18.3235C15.5231 18.2327 15.4839 18.1068 15.4333 17.969C15.3258 17.6759 15.1898 17.3913 15.0515 17.2346C14.7849 16.9329 14.6329 16.8053 14.4783 16.7161C14.3069 16.6173 14.1081 16.5497 13.6873 16.4065C12.6252 16.0451 11.5885 16.0066 10.5232 15.9319C9.67046 15.872 8.84403 15.8476 8.1062 15.7542C7.35059 15.6584 6.62722 15.4852 5.92749 15.1018C4.75849 14.4611 3.66401 13.3442 2.95483 12.2561C2.00933 10.8053 1.18979 8.5235 0.967529 7.8811C0.817384 7.44713 1.18628 7.0275 1.61792 7.09204L1.70483 7.11157L2.33081 7.29517C3.11975 7.52164 4.31004 7.84729 5.11694 7.99341C5.64704 8.08936 6.12149 8.12172 6.63257 8.16724C7.13787 8.21225 7.66869 8.26911 8.25854 8.41919C9.22469 8.66504 9.9544 8.90571 10.6453 9.24927C11.3358 9.59276 11.9687 10.0296 12.7498 10.6467C13.8105 11.485 14.7686 12.8649 15.4548 14.0061C15.4541 13.9922 15.4536 13.9781 15.4529 13.9641C15.3808 12.5607 15.3857 10.7784 15.7263 9.40552C16.0524 8.09118 16.2794 7.19408 17.1472 6.02759C18.084 4.76842 19.0077 4.20328 20.4128 3.64478C21.4125 3.24755 22.2794 3.16729 23.0554 3.03638C23.8319 2.90534 24.6021 2.71652 25.5603 2.12134C25.8857 1.91904 26.2329 1.58283 26.5476 1.22192C26.8574 0.866555 27.1132 0.513932 27.2576 0.304932L27.3142 0.234619ZM8.34448 11.6389C8.0791 11.5637 7.80292 11.7184 7.72729 11.9836C7.65201 12.2491 7.80562 12.5263 8.07104 12.6018L8.07202 12.6008C8.0728 12.6011 8.07434 12.6013 8.07593 12.6018C8.0797 12.6029 8.08586 12.6055 8.09351 12.6077C8.10902 12.6122 8.13269 12.6183 8.16284 12.6272C8.2234 12.645 8.31232 12.6725 8.42261 12.7063C8.64327 12.774 8.95072 12.8715 9.29663 12.9895C9.99626 13.2282 10.8277 13.5423 11.4246 13.8625C11.9422 14.1403 12.5755 14.5796 13.0916 14.9592C13.3468 15.147 13.5686 15.3169 13.7263 15.4397C13.8051 15.501 13.8691 15.5503 13.9119 15.5842C13.933 15.601 13.9489 15.6146 13.9597 15.6233C13.9651 15.6276 13.9688 15.6319 13.9714 15.634L13.9763 15.636C14.191 15.809 14.505 15.7761 14.6785 15.5618C14.852 15.3469 14.8181 15.0312 14.6033 14.8577H14.6023C14.6015 14.857 14.6008 14.8549 14.5994 14.8538C14.5962 14.8512 14.5906 14.8478 14.5847 14.843C14.5727 14.8334 14.5553 14.8188 14.533 14.801C14.488 14.7653 14.422 14.715 14.3406 14.6516C14.1774 14.5246 13.9485 14.348 13.6843 14.1536C13.1613 13.7688 12.4796 13.2957 11.8962 12.9827C11.2236 12.6218 10.3288 12.2851 9.61987 12.0432C9.26167 11.921 8.94383 11.8193 8.71558 11.7493C8.60143 11.7143 8.50883 11.687 8.44507 11.6682C8.41359 11.6589 8.38878 11.6526 8.37183 11.6477C8.36331 11.6452 8.35584 11.6422 8.35132 11.6409C8.3494 11.6404 8.34752 11.6402 8.34644 11.6399L8.34448 11.6389ZM24.4597 5.92993C24.3675 5.66978 24.0813 5.53311 23.821 5.62524L23.8132 5.62915C23.8076 5.63117 23.7983 5.63414 23.7878 5.63794C23.767 5.64551 23.7364 5.65589 23.698 5.67017C23.6205 5.699 23.5092 5.74207 23.3718 5.79614C23.0968 5.90442 22.7152 6.06063 22.2917 6.25415C21.4576 6.63535 20.4102 7.18176 19.6921 7.80591C18.9546 8.44711 18.2555 9.4393 17.7546 10.2375C17.5004 10.6427 17.2894 11.0098 17.1423 11.2756C17.0688 11.4086 17.0112 11.5177 16.9714 11.593C16.9518 11.6302 16.936 11.6597 16.9255 11.6799L16.9099 11.7112L16.9089 11.7122C16.7842 11.9581 16.8821 12.2588 17.1277 12.384C17.3738 12.509 17.6754 12.4113 17.8005 12.1653V12.1633C17.8011 12.1624 17.8025 12.1613 17.8035 12.1594C17.8057 12.1551 17.8096 12.1479 17.8142 12.1389C17.8235 12.121 17.8368 12.0937 17.8552 12.0588C17.8923 11.9887 17.9482 11.8868 18.0183 11.76C18.1588 11.5061 18.36 11.155 18.6023 10.7688C19.0945 9.98438 19.7279 9.09846 20.3474 8.55981C20.9508 8.03537 21.8881 7.5389 22.7078 7.16431C23.1112 6.97995 23.4755 6.83017 23.738 6.72681C23.8688 6.67532 23.9744 6.63452 24.0466 6.60767C24.0826 6.5943 24.1112 6.58407 24.1296 6.57739C24.1382 6.57428 24.1448 6.57214 24.1492 6.57056L24.155 6.5686C24.4152 6.47647 24.5517 6.19017 24.4597 5.92993Z" fill="#0A6913"/>
<line x1="10.2549" y1="23.1785" x2="21.2635" y2="23.1785" stroke="#45E855" stroke-linecap="round"/>
</svg>
