<svg width="60" height="36" viewBox="0 0 60 36" fill="none" xmlns="http://www.w3.org/2000/svg">
<path d="M13.7018 2.33841C13.9243 1.44808 14.7243 0.823486 15.642 0.823486H44.0854C44.7112 0.823486 45.1832 1.39172 45.0685 2.00687L40.5045 26.4731H8.94875C8.29818 26.4731 7.82082 25.8617 7.97861 25.2306L13.7018 2.33841Z" fill="#0A6913"/>
<path d="M8.14514 5.12698C7.869 5.12699 7.64515 5.35086 7.64516 5.627C7.64517 5.90315 7.86904 6.12699 8.14518 6.12698L8.14516 5.62698L8.14514 5.12698ZM12.598 6.12682L13.098 6.1268L13.098 5.1268L12.598 5.12682L12.598 5.62682L12.598 6.12682ZM8.14516 5.62698L8.14518 6.12698L12.598 6.12682L12.598 5.62682L12.598 5.12682L8.14514 5.12698L8.14516 5.62698Z" fill="#0A6913"/>
<path d="M2.75141 10.3768L9.5133 10.3768" stroke="#0A6913" stroke-linecap="round"/>
<path d="M17.1399 30.3872H13.301C12.1967 30.387 11.3012 29.4915 11.301 28.3872V27.6763H18.8352L17.1399 30.3872ZM43.343 30.3872H25.5227L24.1956 27.6763H44.26L43.343 30.3872ZM59.9973 28.3872C59.9972 29.4916 59.1017 30.3871 57.9973 30.3872H51.8274L50.3342 27.6763H59.9973V28.3872ZM59.9973 26.6763H23.7053L23.635 26.5317H19.551L19.4602 26.6763H11.301V25.2407H59.9973V26.6763Z" fill="#0A6913"/>
<path d="M1.00043 15.1837L7.76232 15.1836" stroke="#0A6913" stroke-linecap="round"/>
<path d="M3.87433 19.9909L6.87268 19.9909" stroke="#0A6913" stroke-linecap="round"/>
<path d="M27.4681 19.4064C27.4637 19.4064 27.4592 19.4064 27.4647 19.391C27.4703 19.3756 27.4859 19.3448 28.0098 19.032C28.5337 18.7192 29.5653 18.1253 30.5637 17.5457" stroke="#45E855" stroke-linecap="round"/>
<path d="M27.3711 19.5862C27.3711 19.589 27.3711 19.5918 27.581 19.8098C27.7909 20.0279 28.2107 20.4611 28.5837 20.8125C28.9567 21.1639 29.2701 21.4202 29.5931 21.6843" stroke="#45E855" stroke-linecap="round"/>
<path d="M33.6331 14.8645C33.6331 14.869 33.903 15.2543 34.2069 15.8828C34.5579 16.6084 34.6643 16.715 34.6851 17.2981C34.7045 17.843 34.6554 18.1977 34.3599 18.6561C34.0716 19.1033 33.8052 19.258 33.2911 19.5014C33.1358 19.5437 32.7398 19.632 31.9308 19.6699C31.1218 19.7077 29.5995 19.6572 28.2004 19.6699" stroke="#45E855" stroke-linecap="round"/>
<path d="M31.7737 11.7737C31.7759 11.7776 31.7782 11.7814 31.7621 11.7844C31.746 11.7873 31.7115 11.7891 31.1787 11.4918C30.6458 11.1945 29.6157 10.5981 28.6145 10.0232" stroke="#45E855" stroke-linecap="round"/>
<path d="M31.9795 11.7693C31.9819 11.7679 31.9843 11.7665 32.0682 11.4757C32.1521 11.1849 32.3174 10.6047 32.4352 10.106C32.553 9.60729 32.6183 9.20766 32.6856 8.79591" stroke="#45E855" stroke-linecap="round"/>
<path d="M24.7585 8.70631C24.7624 8.70408 24.9612 8.27768 25.3535 7.70026C25.8064 7.03346 25.8456 6.88804 26.3401 6.5785C26.8023 6.28916 27.134 6.1544 27.6787 6.18109C28.2102 6.20713 28.4773 6.36051 28.9451 6.68402C29.0595 6.79739 29.3339 7.09617 29.7712 7.77786C30.2085 8.45954 30.9259 9.80317 31.6364 11.0085" stroke="#45E855" stroke-linecap="round"/>
<path d="M23.0692 12.3912C23.0714 12.3874 23.0737 12.3835 23.0842 12.396C23.0948 12.4085 23.1136 12.4374 23.1226 13.0475C23.1315 13.6576 23.13 14.8479 23.1328 16.0024" stroke="#45E855" stroke-linecap="round"/>
<path d="M22.9617 12.2158C22.9592 12.2144 22.9568 12.213 22.663 12.2858C22.3692 12.3585 21.7841 12.5055 21.2934 12.6528C20.8026 12.8001 20.4238 12.9434 20.0336 13.091" stroke="#45E855" stroke-linecap="round"/>
<path d="M23.9197 20.0005C23.9158 19.9982 23.4471 20.0393 22.7509 19.9883C21.947 19.9294 21.8015 19.9682 21.2861 19.6947C20.8045 19.4391 20.5219 19.2192 20.2727 18.7341C20.0295 18.2608 20.0287 17.9528 20.075 17.3859C20.116 17.2302 20.2375 16.8431 20.6092 16.1236C20.9809 15.404 21.7859 14.111 22.4744 12.893" stroke="#45E855" stroke-linecap="round"/>
<path d="M51.4673 5.03198C52.1312 5.03198 52.7525 5.36193 53.1245 5.91187L54.8091 8.4021H48.1821C47.3537 8.4021 46.6821 9.07367 46.6821 9.9021V14.9802C46.6823 16.0847 47.5777 16.9802 48.6821 16.9802H59.9966V25.241H39.5337V5.03198H51.4673ZM59.4175 19.5535L55.8511 19.5525C55.5751 19.5525 55.3513 19.7765 55.3511 20.0525C55.3513 20.3284 55.5751 20.5524 55.8511 20.5525H59.9185V19.5525L59.4175 19.5535ZM59.8247 15.8171C59.8594 15.8685 59.8872 15.9239 59.9116 15.9802H48.6821C48.1299 15.9802 47.6823 15.5324 47.6821 14.9802V9.9021C47.6821 9.62596 47.906 9.4021 48.1821 9.4021H55.4858L59.8247 15.8171Z" fill="#0A6913"/>
<path d="M21.2378 23.7979C24.3801 23.7979 26.9272 26.345 26.9272 29.4873C26.9272 32.6297 24.3801 35.1767 21.2378 35.1768C18.0954 35.1768 15.5474 32.6297 15.5474 29.4873C15.5474 26.3449 18.0954 23.7979 21.2378 23.7979ZM21.2378 27.1855C19.9668 27.1857 18.936 28.2162 18.936 29.4873L18.9478 29.7227C19.0578 30.8058 19.9193 31.6672 21.0024 31.7773L21.2378 31.7891C22.4294 31.789 23.4099 30.8832 23.5278 29.7227L23.5396 29.4873C23.5396 28.2956 22.6337 27.3152 21.4731 27.1973L21.2378 27.1855ZM21.2378 28.1855C21.9566 28.1856 22.5396 28.7684 22.5396 29.4873C22.5395 30.2061 21.9566 30.789 21.2378 30.7891C20.5191 30.7889 19.9361 30.206 19.936 29.4873C19.936 28.7685 20.5191 28.1857 21.2378 28.1855Z" fill="#0A6913"/>
<path d="M47.7075 23.7979C50.8497 23.798 53.3969 26.345 53.397 29.4873C53.397 32.6296 50.8498 35.1766 47.7075 35.1768C44.5651 35.1768 42.0171 32.6297 42.0171 29.4873C42.0171 26.3449 44.5651 23.7979 47.7075 23.7979ZM47.7075 27.1855C46.4365 27.1857 45.4058 28.2162 45.4058 29.4873L45.4175 29.7227C45.5275 30.8058 46.389 31.6672 47.4722 31.7773L47.7075 31.7891C48.8992 31.789 49.8796 30.8832 49.9976 29.7227L50.0093 29.4873C50.0093 28.2956 49.1035 27.3152 47.9429 27.1973L47.7075 27.1855ZM47.7075 28.1855C48.4264 28.1856 49.0093 28.7684 49.0093 29.4873C49.0092 30.2061 48.4263 30.789 47.7075 30.7891C46.9888 30.7889 46.4058 30.206 46.4058 29.4873C46.4058 28.7685 46.9888 28.1857 47.7075 28.1855Z" fill="#0A6913"/>
</svg>
