<svg width="42" height="42" viewBox="0 0 42 42" fill="none" xmlns="http://www.w3.org/2000/svg">
<g clip-path="url(#clip0_307_690)">
<path d="M38.1934 37.0466C38.1933 38.7033 36.85 40.0464 35.1934 40.0466H5C3.34318 40.0466 2.00005 38.7034 2 37.0466V12.7712H38.1934V37.0466ZM19.4014 14.7468C13.1428 14.9732 8.22918 20.1197 8.45117 26.2644C8.67338 32.4092 13.9455 37.1878 20.2041 36.9617C20.9883 36.9333 21.7524 36.8273 22.4873 36.6521C22.7557 36.588 22.9214 36.3181 22.8574 36.0496C22.7932 35.7811 22.5234 35.6154 22.2549 35.6794C21.5839 35.8394 20.8858 35.9357 20.168 35.9617C14.4397 36.1686 9.65167 31.7997 9.4502 26.2283C9.24894 20.6569 13.7092 15.954 19.4375 15.7468C25.1659 15.5398 29.9538 19.9087 30.1553 25.4802C30.1654 25.7559 30.3972 25.9714 30.6729 25.9617C30.9487 25.9517 31.1641 25.7199 31.1543 25.4441C30.9321 19.2993 25.66 14.5207 19.4014 14.7468ZM19.752 17.7644C19.4758 17.7644 19.252 17.9883 19.252 18.2644V23.5554C18.2674 23.7964 17.5371 24.6649 17.5371 25.7019L17.5488 25.9285C17.5867 26.2925 17.717 26.6294 17.9131 26.9197L15.168 29.4578C14.9653 29.6451 14.9525 29.961 15.1396 30.1638C15.3271 30.3666 15.6439 30.3796 15.8467 30.1921L18.6445 27.6042C18.921 27.7655 19.235 27.8716 19.5713 27.905L19.8027 27.9167C20.9758 27.9167 21.9404 27.045 22.0566 25.9285L22.0684 25.7019C22.0684 24.6289 21.2884 23.7336 20.252 23.53V18.2644C20.2519 17.9883 20.028 17.7644 19.752 17.7644ZM19.8027 24.4871C20.5235 24.4871 21.0684 25.0525 21.0684 25.7019C21.0682 26.3512 20.5234 26.9167 19.8027 26.9167C19.0824 26.9164 18.5372 26.351 18.5371 25.7019C18.5371 25.0527 19.0823 24.4874 19.8027 24.4871ZM35.1934 4.2146C36.85 4.21485 38.1934 5.5579 38.1934 7.2146V11.7712H2V7.2146C2 5.55775 3.34315 4.2146 5 4.2146H35.1934Z" fill="#0A6913"/>
<path d="M31.8735 27.0737C36.0964 27.0738 39.5005 30.4171 39.5005 34.5171C39.5004 38.617 36.0964 41.9603 31.8735 41.9604C27.6506 41.9604 24.2467 38.6171 24.2466 34.5171C24.2466 30.417 27.6506 27.0737 31.8735 27.0737Z" fill="#0A6913" stroke="#F3F6E7"/>
<path d="M28.3988 34.269L30.9436 37.3327C30.9844 37.3818 31.0601 37.3806 31.0994 37.3303L35.4951 31.6927" stroke="#F3F6E7" stroke-linecap="round"/>
<rect x="25.5247" width="4.96663" height="9.35105" rx="2.48332" fill="#0A6913"/>
<rect x="9.73291" width="4.96663" height="9.35105" rx="2.48332" fill="#0A6913"/>
</g>
<defs>
<clipPath id="clip0_307_690">
<rect width="42" height="42" fill="white"/>
</clipPath>
</defs>
</svg>
