<svg width="1600" height="102" viewBox="0 0 1600 102" fill="none" xmlns="http://www.w3.org/2000/svg">
<path d="M76.8398 124.262V76.7297C70.265 79.1048 63.8616 80.9007 57.6298 82.1172C51.398 83.3338 45.3664 83.9421 39.5348 83.9421C25.8134 83.9421 15.7796 80.669 9.43346 74.1228C3.14449 67.5766 0 57.3807 0 43.5352V1.82483H24.3555V40.8414C24.3555 49.9945 26.1564 56.309 29.7583 59.7848C33.4173 63.2028 39.5348 64.9117 48.1106 64.9117C57.0295 64.9117 66.6059 63.3766 76.8398 60.3062V1.82483H102.139V124.262H76.8398Z" fill="#4DB958" fill-opacity="0.08"/>
<path d="M206.764 29.9793L154.537 124.262H125.722V1.82483H148.191V72.9931C148.191 76.0635 148.134 79.5972 148.02 83.5945C147.905 87.5917 147.734 92.0235 147.505 96.8897L200.075 1.82483H228.547V124.262H206.078V52.051C206.078 49.7917 206.135 46.8372 206.25 43.1876C206.364 39.48 206.536 35.0772 206.764 29.9793Z" fill="#4DB958" fill-opacity="0.08"/>
<path d="M308.474 105.84C323.796 105.84 334.402 98.0772 340.291 82.5517L362.331 90.9807C357.585 102.799 350.61 111.604 341.405 117.397C332.258 123.132 321.281 126 308.474 126C295.553 126 284.547 123.509 275.457 118.527C266.367 113.487 259.42 106.217 254.618 96.7159C249.872 87.2152 247.5 75.8028 247.5 62.4786C247.5 49.0386 249.786 37.6841 254.36 28.4152C258.934 19.1462 265.68 12.1076 274.599 7.29931C283.518 2.4331 294.438 0 307.359 0C321.538 0 333.087 2.89655 342.006 8.68966C350.925 14.4248 357.185 22.8828 360.787 34.0634L338.49 40.2331C336.603 34.0924 332.887 29.2262 327.341 25.6345C321.852 21.9848 315.363 20.16 307.874 20.16C296.439 20.16 287.749 23.7517 281.803 30.9352C275.914 38.1186 272.97 48.6331 272.97 62.4786C272.97 71.8634 274.314 79.771 277.001 86.2014C279.745 92.6317 283.747 97.5269 289.007 100.887C294.324 104.189 300.813 105.84 308.474 105.84Z" fill="#4DB958" fill-opacity="0.08"/>
<path d="M429.051 21.6372V124.262H403.752V21.6372H364.732V1.82483H468.157V21.6372H429.051Z" fill="#4DB958" fill-opacity="0.08"/>
<path d="M499.373 92.9793L488.653 124.262H463.354L507.434 1.82483H537.278L581.187 124.262H556.145L545.425 92.9793H499.373ZM522.356 20.6814C521.784 22.9986 520.984 25.7793 519.955 29.0234C518.926 32.2676 518.183 34.5559 517.725 35.8883L505.033 73.6883H539.765L526.73 35.1062C525.93 32.731 525.186 30.3269 524.5 27.8938C523.814 25.4607 523.099 23.0566 522.356 20.6814Z" fill="#4DB958" fill-opacity="0.08"/>
<path d="M645.42 77.7724L617.377 124.262H588.905L621.579 72.8193C613.403 70.8497 606.914 66.7655 602.112 60.5669C597.309 54.3103 594.908 46.8952 594.908 38.3214C594.908 26.5614 598.824 17.5531 606.657 11.2966C614.547 4.98207 625.667 1.82483 640.017 1.82483H700.391V124.262H675.092V77.7724H645.42ZM620.378 39.3641C620.378 45.1572 622.179 49.7048 625.781 53.0069C629.44 56.251 634.843 57.8731 641.99 57.8731H675.092V21.7241H642.676C635.243 21.7241 629.669 23.2014 625.953 26.1559C622.237 29.1103 620.378 33.5131 620.378 39.3641Z" fill="#4DB958" fill-opacity="0.08"/>
<path d="M797.985 23.0276V124.262H772.772V1.82483H875.511V124.262H851.069V23.0276H797.985Z" fill="#4DB958" fill-opacity="0.08"/>
<path d="M926.28 99.931C923.364 109.2 919.676 115.804 915.217 119.743C910.757 123.683 904.497 125.652 896.436 125.652C892.548 125.652 889.718 125.16 887.946 124.175V102.712C888.689 103.117 889.918 103.32 891.633 103.32C893.291 103.32 894.778 102.828 896.093 101.843C897.408 100.8 898.608 99.2648 899.695 97.2372C900.666 95.3835 901.581 93.0662 902.439 90.2855C903.354 87.4469 904.24 84.0869 905.097 80.2055C905.612 77.8303 906.155 75.0207 906.727 71.7766C907.298 68.5324 908.013 64.1586 908.871 58.6552C909.785 53.0938 910.9 45.7655 912.215 36.6703C913.53 27.5752 915.16 15.96 917.104 1.82483H998.746V124.262H974.39V23.0276H939.487L935.284 53.2676C932.197 74.9338 929.195 90.4883 926.28 99.931Z" fill="#4DB958" fill-opacity="0.08"/>
<path d="M1050.97 92.9793L1040.25 124.262H1014.95L1059.03 1.82483H1088.88L1132.79 124.262H1107.75L1097.03 92.9793H1050.97ZM1073.96 20.6814C1073.38 22.9986 1072.58 25.7793 1071.55 29.0234C1070.53 32.2676 1069.78 34.5559 1069.33 35.8883L1056.63 73.6883H1091.37L1078.33 35.1062C1077.53 32.731 1076.79 30.3269 1076.1 27.8938C1075.41 25.4607 1074.7 23.0566 1073.96 20.6814Z" fill="#4DB958" fill-opacity="0.08"/>
<path d="M1174.55 71.7766V124.262H1149.25V1.82483H1174.55V50.5738H1227.21V1.82483H1252.51V124.262H1227.21V71.7766H1174.55Z" fill="#4DB958" fill-opacity="0.08"/>
<path d="M1374.71 104.45V124.262H1276.18V1.82483H1371.2V21.6372H1301.47V52.3986H1365.96V72.211H1301.47V104.45H1374.71Z" fill="#4DB958" fill-opacity="0.08"/>
<path d="M1447.86 21.6372V124.262H1422.57V21.6372H1383.55V1.82483H1486.97V21.6372H1447.86Z" fill="#4DB958" fill-opacity="0.08"/>
<path d="M1518.19 92.9793L1507.47 124.262H1482.17L1526.25 1.82483H1556.09L1600 124.262H1574.96L1564.24 92.9793H1518.19ZM1541.17 20.6814C1540.6 22.9986 1539.8 25.7793 1538.77 29.0234C1537.74 32.2676 1537 34.5559 1536.54 35.8883L1523.85 73.6883H1558.58L1545.54 35.1062C1544.74 32.731 1544 30.3269 1543.31 27.8938C1542.63 25.4607 1541.91 23.0566 1541.17 20.6814Z" fill="#4DB958" fill-opacity="0.08"/>
</svg>
