<svg width="26" height="11" viewBox="0 0 26 11" fill="none" xmlns="http://www.w3.org/2000/svg">
<path d="M1 4.8C0.613401 4.8 0.3 5.1134 0.3 5.5C0.3 5.8866 0.613401 6.2 1 6.2L1 5.5L1 4.8ZM25.495 5.99497C25.7683 5.72161 25.7683 5.27839 25.495 5.00502L21.0402 0.550251C20.7668 0.276884 20.3236 0.276884 20.0503 0.550251C19.7769 0.823618 19.7769 1.26683 20.0503 1.5402L24.01 5.5L20.0503 9.4598C19.7769 9.73316 19.7769 10.1764 20.0503 10.4497C20.3236 10.7231 20.7668 10.7231 21.0402 10.4497L25.495 5.99497ZM1 5.5L1 6.2L25 6.2L25 5.5L25 4.8L1 4.8L1 5.5Z" fill="#02550A"/>
</svg>
