<svg width="135" height="27" viewBox="0 0 135 27" fill="none" xmlns="http://www.w3.org/2000/svg">
<mask id="mask0_2012_485" style="mask-type:luminance" maskUnits="userSpaceOnUse" x="0" y="0" width="135" height="27">
<path d="M135 0H0V26.3354H135V0Z" fill="white"/>
</mask>
<g mask="url(#mask0_2012_485)">
<path d="M24.1397 19.3865H21.7778V6.604H24.1397V19.3865Z" fill="#F4FEFF"/>
<path d="M35.897 16.2603C35.529 17.3081 34.9403 18.1403 34.1301 18.7562C33.3199 19.3722 32.3345 19.6805 31.1739 19.6805C29.496 19.6805 28.1685 19.1242 27.1915 18.0104C26.3295 17.0349 25.8984 15.8754 25.8984 14.5326C25.8984 13.1898 26.3119 12.1455 27.1397 11.1925C28.1048 10.0794 29.421 9.52246 31.0876 9.52246C32.2714 9.52246 33.2884 9.83639 34.1392 10.4628C34.9894 11.09 35.576 11.9278 35.8977 12.9771H33.3122C33.0935 12.5515 32.7922 12.2319 32.4074 12.0184C32.0219 11.8056 31.5712 11.6989 31.054 11.6989C30.1688 11.6989 29.4708 11.9763 28.9598 12.5318C28.4482 13.0873 28.1924 13.765 28.1924 14.5663C28.1924 15.3677 28.451 16.1002 28.9682 16.6613C29.4855 17.2224 30.1807 17.5026 31.054 17.5026C31.5944 17.5026 32.0478 17.3987 32.4158 17.1915C32.7837 16.9843 33.0823 16.6732 33.3122 16.2589H35.8977L35.897 16.2603Z" fill="#F4FEFF"/>
<path d="M46.9292 14.6048V14.8633C46.9292 15.1049 46.9117 15.357 46.8773 15.621H39.3956C39.5449 16.1913 39.8462 16.6485 40.3004 16.9905C40.7546 17.3325 41.2858 17.5039 41.8949 17.5039C42.2972 17.5039 42.6707 17.4421 43.0155 17.3178C43.4291 17.1598 43.7683 16.928 44.0325 16.6232H46.618C46.1926 17.6198 45.5632 18.3783 44.7306 18.8994C43.8972 19.4198 42.9812 19.681 41.9811 19.681C40.395 19.681 39.125 19.1185 38.1712 17.9941C37.3434 17.0186 36.9299 15.9111 36.9299 14.6715C36.9299 13.432 37.3434 12.2788 38.1712 11.2802C39.1363 10.1094 40.4181 9.52441 42.0154 9.52441C43.4634 9.52441 44.6444 10.0097 45.5583 10.9803C46.4722 11.9508 46.9285 13.1595 46.9285 14.6062L46.9292 14.6048ZM44.5329 13.583C44.3717 12.9895 44.0612 12.5274 43.6022 12.1966C43.1424 11.8659 42.614 11.7001 42.0161 11.7001C41.4183 11.7001 40.8464 11.8715 40.3698 12.2135C39.8925 12.5555 39.5568 13.012 39.3612 13.583H44.5329Z" fill="#F4FEFF"/>
<path d="M65.8056 19.3865H63.4436V9.81698L60.2197 19.3865H58.2201L54.9968 9.81698V19.3865H52.6349V6.604H55.8413L59.2202 16.3806L62.5991 6.604H65.8056V19.3865Z" fill="#F4FEFF"/>
<path d="M77.4238 19.3862H75.3205V18.0905C74.9413 18.6031 74.4731 18.9964 73.9152 19.2696C73.3573 19.5428 72.7518 19.6798 72.0965 19.6798C70.8321 19.6798 69.7522 19.2324 68.8558 18.337C67.9019 17.3847 67.4253 16.1683 67.4253 14.6871C67.4253 13.206 67.8823 11.9763 68.7955 10.9945C69.7094 10.0134 70.8321 9.52246 72.1659 9.52246C73.4996 9.52246 74.5853 10.0695 75.2861 11.1637L75.3205 9.81602H77.4238V19.3855V19.3862ZM75.2693 14.5839C75.2693 13.7482 75.0191 13.0585 74.5194 12.5149C74.0197 11.9714 73.3559 11.6996 72.5282 11.6996C71.7005 11.6996 71.0396 11.9805 70.5111 12.5409C69.9828 13.1021 69.7185 13.817 69.7185 14.6871C69.7185 15.5004 69.9799 16.1725 70.5027 16.7048C71.0256 17.2372 71.7005 17.5033 72.5282 17.5033C73.3559 17.5033 74.0049 17.2344 74.511 16.6964C75.0163 16.1584 75.2693 15.454 75.2693 14.5839Z" fill="#F4FEFF"/>
<path d="M83.63 11.734C82.9403 11.734 82.4259 11.944 82.0874 12.3647C81.7481 12.7853 81.5785 13.4041 81.5785 14.2215V19.3862H79.286V9.81674H81.3893V10.6806C81.8603 9.88627 82.5324 9.48877 83.4064 9.48877H83.6307V11.7347L83.63 11.734Z" fill="#F4FEFF"/>
<path d="M93.4386 19.3865H90.3702L87.095 14.9128V19.3865H84.8025V6.604H87.095V14.325L90.1634 9.81628H92.8702L89.4226 14.4978L93.4393 19.3865H93.4386Z" fill="#F4FEFF"/>
<path d="M104.385 14.6048V14.8633C104.385 15.1049 104.367 15.357 104.333 15.621H96.851C97.0003 16.1913 97.3017 16.6485 97.7558 16.9905C98.21 17.3325 98.7413 17.5039 99.3503 17.5039C99.7526 17.5039 100.126 17.4421 100.471 17.3178C100.885 17.1598 101.224 16.928 101.488 16.6232H104.073C103.648 17.6198 103.019 18.3783 102.186 18.8994C101.353 19.4198 100.436 19.681 99.4365 19.681C97.8505 19.681 96.5805 19.1185 95.6266 17.9941C94.7989 17.0186 94.3854 15.9111 94.3854 14.6715C94.3854 13.432 94.7989 12.2788 95.6266 11.2802C96.5917 10.1094 97.8736 9.52441 99.4709 9.52441C100.919 9.52441 102.1 10.0097 103.013 10.9803C103.927 11.9508 104.383 13.1595 104.383 14.6062L104.385 14.6048ZM101.988 13.583C101.827 12.9895 101.517 12.5274 101.058 12.1966C100.598 11.8659 100.069 11.7001 99.4716 11.7001C98.8737 11.7001 98.3018 11.8715 97.8252 12.2135C97.3479 12.5555 97.0122 13.012 96.8167 13.583H101.988Z" fill="#F4FEFF"/>
<path d="M109.849 11.8555H108.47V19.387H106.178V11.8555H105.057V9.81749H106.178V6.60449H108.47V9.81749H109.849V11.8555Z" fill="#F4FEFF"/>
<path d="M113.297 8.71157H111.004V6.604H113.297V8.71157ZM113.297 19.3865H111.004V9.81698H113.297V19.3865Z" fill="#F4FEFF"/>
<path d="M123.623 19.3865H121.33V14.3082C121.33 13.3411 121.124 12.6388 120.71 12.2006C120.388 11.8551 119.957 11.6823 119.417 11.6823C118.6 11.6823 118.038 12.0103 117.728 12.6669C117.532 13.07 117.435 13.6171 117.435 14.3082V19.3865H115.142V9.817H117.246V10.6977C117.533 10.3802 117.82 10.1358 118.108 9.96588C118.625 9.67092 119.222 9.52344 119.901 9.52344C121.027 9.52344 121.929 9.90268 122.607 10.6619C123.285 11.4203 123.624 12.4668 123.624 13.7997V19.3865H123.623Z" fill="#F4FEFF"/>
<path d="M135 17.9353C135 19.5703 134.477 20.8604 133.431 21.805C132.478 22.6688 131.288 23.1007 129.863 23.1007C128.703 23.1007 127.689 22.7952 126.821 22.1849C125.953 21.5746 125.376 20.7108 125.088 19.5941H127.726C127.864 20.0197 128.125 20.3484 128.51 20.5788C128.895 20.8091 129.346 20.9243 129.863 20.9243C130.656 20.9243 131.329 20.6708 131.88 20.1644C132.432 19.6573 132.708 19.0478 132.708 18.3335V17.988C132.317 18.5063 131.89 18.8862 131.424 19.1278C130.959 19.3694 130.427 19.4909 129.83 19.4909C128.497 19.4909 127.358 19.0021 126.416 18.0252C125.474 17.0483 125.003 15.8635 125.003 14.473C125.003 13.0825 125.477 11.838 126.425 10.9124C127.373 9.98744 128.525 9.52393 129.882 9.52393C130.41 9.52393 130.887 9.60961 131.312 9.78026C131.979 10.0422 132.496 10.4924 132.864 11.1301L132.898 9.81749H135.001V17.936L135 17.9353ZM132.845 14.5411C132.845 13.6801 132.592 12.9912 132.087 12.4743C131.581 11.9574 130.909 11.6996 130.07 11.6996C129.231 11.6996 128.518 11.9806 128.001 12.5431C127.529 13.06 127.295 13.697 127.295 14.4547C127.295 15.2589 127.53 15.9246 128.001 16.4521C128.518 17.0258 129.208 17.3131 130.07 17.3131C130.932 17.3131 131.581 17.049 132.087 16.5209C132.592 15.9928 132.845 15.3326 132.845 14.5404V14.5411Z" fill="#F4FEFF"/>
<path d="M6.01143 26.3005H4.064L0.197266 17.4365L6.01143 26.3005Z" fill="white" stroke="url(#paint0_linear_2012_485)" stroke-width="0.2"/>
<path d="M5.98123 26.1268L0.0463867 17.0787L2.80091 14.8027L5.98123 26.1268Z" fill="white" stroke="url(#paint1_linear_2012_485)" stroke-width="0.2"/>
<path d="M9.45146 26.3004H6.10281L0.681641 7.47314L9.45146 26.3004Z" fill="white" stroke="url(#paint2_linear_2012_485)" stroke-width="0.2"/>
<path d="M11.6926 26.3003H9.57227L14.8169 18.4741L11.6926 26.3003Z" fill="white" stroke="url(#paint3_linear_2012_485)" stroke-width="0.2"/>
<path d="M14.9339 18.1737L9.58569 26.1544L12.9424 12.0732L14.9339 18.1737Z" fill="white" stroke="url(#paint4_linear_2012_485)" stroke-width="0.2"/>
<path d="M6.50227 3.97202L0.643066 6.95073L5.82331 0.0859375L6.50227 3.97202Z" fill="white" stroke="url(#paint5_linear_2012_485)" stroke-width="0.2"/>
<path d="M9.86761 2.41427L6.56778 3.94018L5.89136 0.0688477L9.86761 2.41427Z" fill="white" stroke="url(#paint6_linear_2012_485)" stroke-width="0.2"/>
<path d="M12.896 11.9656L9.49558 26.2293L0.592285 7.11523L12.896 11.9656Z" fill="white" stroke="url(#paint7_linear_2012_485)" stroke-width="0.2"/>
<path d="M7.25965 9.66808L0.608887 7.04634L6.51285 4.04492L7.25965 9.66808Z" fill="white" stroke="url(#paint8_linear_2012_485)" stroke-width="0.2"/>
<path d="M9.48009 25.8691L6.57935 4.01195L9.90712 2.47314L9.48009 25.8691Z" fill="white" stroke="url(#paint9_linear_2012_485)" stroke-width="0.2"/>
<path d="M12.896 11.9656L9.49558 26.2293L0.592285 7.11523L12.896 11.9656Z" fill="white" stroke="url(#paint10_linear_2012_485)" stroke-width="0.2"/>
<path d="M9.75637 10.7283L9.48009 25.8694L7.34497 9.77734L9.75637 10.7283Z" fill="white" stroke="url(#paint11_linear_2012_485)" stroke-width="0.2"/>
</g>
<defs>
<linearGradient id="paint0_linear_2012_485" x1="3.03812" y1="17.0717" x2="3.03812" y2="26.3357" gradientUnits="userSpaceOnUse">
<stop stop-color="#0046D1"/>
<stop offset="1" stop-color="#002163"/>
</linearGradient>
<linearGradient id="paint1_linear_2012_485" x1="3.0381" y1="14.7414" x2="3.0381" y2="26.3356" gradientUnits="userSpaceOnUse">
<stop stop-color="#0046D1"/>
<stop offset="1" stop-color="#002163"/>
</linearGradient>
<linearGradient id="paint2_linear_2012_485" x1="5.01503" y1="7.05057" x2="5.01503" y2="26.3356" gradientUnits="userSpaceOnUse">
<stop stop-color="#0046D1"/>
<stop offset="1" stop-color="#002163"/>
</linearGradient>
<linearGradient id="paint3_linear_2012_485" x1="12.2395" y1="18.179" x2="12.2395" y2="26.3355" gradientUnits="userSpaceOnUse">
<stop stop-color="#0046D1"/>
<stop offset="1" stop-color="#002163"/>
</linearGradient>
<linearGradient id="paint4_linear_2012_485" x1="12.2395" y1="11.9442" x2="12.2395" y2="26.3356" gradientUnits="userSpaceOnUse">
<stop stop-color="#0046D1"/>
<stop offset="1" stop-color="#002163"/>
</linearGradient>
<linearGradient id="paint5_linear_2012_485" x1="3.53252" y1="0.000482218" x2="3.53252" y2="7.05082" gradientUnits="userSpaceOnUse">
<stop stop-color="#0046D1"/>
<stop offset="1" stop-color="#002163"/>
</linearGradient>
<linearGradient id="paint6_linear_2012_485" x1="7.89348" y1="5.83962e-05" x2="7.89348" y2="3.9912" gradientUnits="userSpaceOnUse">
<stop stop-color="#0046D1"/>
<stop offset="1" stop-color="#002163"/>
</linearGradient>
<linearGradient id="paint7_linear_2012_485" x1="6.7303" y1="7.05048" x2="6.7303" y2="26.3355" gradientUnits="userSpaceOnUse">
<stop stop-color="#0046D1"/>
<stop offset="1" stop-color="#002163"/>
</linearGradient>
<linearGradient id="paint8_linear_2012_485" x1="3.91285" y1="3.99122" x2="3.91285" y2="9.72265" gradientUnits="userSpaceOnUse">
<stop stop-color="#0046D1"/>
<stop offset="1" stop-color="#002163"/>
</linearGradient>
<linearGradient id="paint9_linear_2012_485" x1="8.24222" y1="2.41787" x2="8.24222" y2="26.3353" gradientUnits="userSpaceOnUse">
<stop stop-color="#0046D1"/>
<stop offset="1" stop-color="#002163"/>
</linearGradient>
<linearGradient id="paint10_linear_2012_485" x1="6.7303" y1="7.05048" x2="6.7303" y2="26.3355" gradientUnits="userSpaceOnUse">
<stop stop-color="#0046D1"/>
<stop offset="1" stop-color="#002163"/>
</linearGradient>
<linearGradient id="paint11_linear_2012_485" x1="8.5471" y1="9.72278" x2="8.5471" y2="26.3356" gradientUnits="userSpaceOnUse">
<stop stop-color="#0046D1"/>
<stop offset="1" stop-color="#002163"/>
</linearGradient>
</defs>
</svg>
