<svg width="14" height="20" viewBox="0 0 14 20" fill="none" xmlns="http://www.w3.org/2000/svg">
<path d="M6.75195 0C10.481 0 13.5038 3.03824 13.5039 6.78613C13.5039 10.1402 10.19 15.2054 7.62012 19.2139C7.21895 19.8396 6.29495 19.8338 5.89844 19.2051C3.45029 15.3233 0 10.1218 0 6.78613C7.39403e-05 3.03824 3.02294 2.42825e-08 6.75195 0ZM6.75195 3.21484C4.79892 3.21501 3.21507 4.79893 3.21484 6.75195L3.21973 6.93359C3.31137 8.74186 4.76116 10.1922 6.56934 10.2842L6.75195 10.2881C8.64411 10.2879 10.1895 8.80226 10.2842 6.93359L10.2881 6.75195C10.2879 4.85986 8.80221 3.31443 6.93359 3.21973L6.75195 3.21484ZM6.75195 4.21484C8.1527 4.21501 9.28786 5.35122 9.28809 6.75195C9.28792 8.15274 8.15274 9.28792 6.75195 9.28809C5.35117 9.28792 4.21501 8.15274 4.21484 6.75195C4.21507 5.35122 5.3512 4.21501 6.75195 4.21484Z" fill="#0A6913"/>
</svg>
