<svg width="132" height="30" viewBox="0 0 132 30" fill="none" xmlns="http://www.w3.org/2000/svg">
<path d="M1.458 13V0.219999H9.072V2.002H3.474V13H1.458ZM10.9853 13V0.219999H19.9673V1.984H13.0013V5.566H16.7453C18.1613 5.566 19.2233 5.902 19.9313 6.574C20.6393 7.234 20.9933 8.11 20.9933 9.202C20.9933 9.934 20.8373 10.588 20.5253 11.164C20.2253 11.728 19.7693 12.178 19.1573 12.514C18.5573 12.838 17.7953 13 16.8713 13H10.9853ZM13.0013 11.236H16.6013C17.1533 11.236 17.5973 11.134 17.9333 10.93C18.2813 10.726 18.5273 10.468 18.6713 10.156C18.8273 9.832 18.9053 9.496 18.9053 9.148C18.9053 8.8 18.8393 8.476 18.7073 8.176C18.5753 7.876 18.3353 7.636 17.9873 7.456C17.6513 7.264 17.1773 7.168 16.5653 7.168H13.0013V11.236ZM24.1813 13.072V11.38H25.0993C25.3993 11.38 25.6273 11.308 25.7833 11.164C25.9393 11.02 26.0893 10.804 26.2333 10.516L26.6113 9.688L21.4093 0.219999H23.6413L27.5293 7.618L30.8233 0.219999H32.9653L27.7813 11.47C27.4933 12.058 27.1753 12.472 26.8273 12.712C26.4913 12.952 26.0293 13.072 25.4413 13.072H24.1813ZM38.6705 13V0.219999H44.0345C44.6105 0.219999 45.1385 0.339999 45.6185 0.579999C46.0985 0.819999 46.5185 1.138 46.8785 1.534C47.2385 1.93 47.5145 2.374 47.7065 2.866C47.8985 3.358 47.9945 3.862 47.9945 4.378C47.9945 5.086 47.8325 5.764 47.5085 6.412C47.1965 7.048 46.7465 7.564 46.1585 7.96C45.5825 8.356 44.9105 8.554 44.1425 8.554H40.6865V13H38.6705ZM40.6865 6.772H44.0165C44.4005 6.772 44.7365 6.67 45.0245 6.466C45.3125 6.25 45.5345 5.962 45.6905 5.602C45.8585 5.242 45.9425 4.834 45.9425 4.378C45.9425 3.91 45.8465 3.496 45.6545 3.136C45.4625 2.776 45.2105 2.5 44.8985 2.308C44.5985 2.104 44.2685 2.002 43.9085 2.002H40.6865V6.772ZM55.1953 13.09C54.2713 13.09 53.4373 12.91 52.6933 12.55C51.9493 12.19 51.3073 11.704 50.7673 11.092C50.2273 10.468 49.8073 9.772 49.5073 9.004C49.2193 8.224 49.0753 7.426 49.0753 6.61C49.0753 5.758 49.2313 4.948 49.5433 4.18C49.8553 3.4 50.2873 2.71 50.8393 2.11C51.3913 1.498 52.0393 1.018 52.7833 0.669999C53.5393 0.309999 54.3553 0.129999 55.2313 0.129999C56.1433 0.129999 56.9713 0.316 57.7153 0.688C58.4713 1.06 59.1133 1.558 59.6413 2.182C60.1813 2.806 60.5953 3.502 60.8833 4.27C61.1833 5.038 61.3333 5.824 61.3333 6.628C61.3333 7.48 61.1773 8.296 60.8653 9.076C60.5653 9.844 60.1393 10.534 59.5873 11.146C59.0353 11.746 58.3813 12.22 57.6253 12.568C56.8813 12.916 56.0713 13.09 55.1953 13.09ZM51.1273 6.61C51.1273 7.21 51.2233 7.792 51.4153 8.356C51.6073 8.92 51.8773 9.424 52.2253 9.868C52.5853 10.3 53.0173 10.642 53.5213 10.894C54.0253 11.146 54.5893 11.272 55.2133 11.272C55.8613 11.272 56.4373 11.14 56.9413 10.876C57.4453 10.612 57.8653 10.258 58.2013 9.814C58.5493 9.358 58.8133 8.854 58.9933 8.302C59.1733 7.738 59.2633 7.174 59.2633 6.61C59.2633 6.01 59.1673 5.434 58.9753 4.882C58.7953 4.318 58.5253 3.82 58.1653 3.388C57.8053 2.944 57.3733 2.596 56.8693 2.344C56.3773 2.092 55.8253 1.966 55.2133 1.966C54.5653 1.966 53.9893 2.098 53.4853 2.362C52.9813 2.626 52.5553 2.98 52.2073 3.424C51.8593 3.868 51.5893 4.366 51.3973 4.918C51.2173 5.47 51.1273 6.034 51.1273 6.61ZM67.1117 7.888L71.7557 4.558V6.196L68.6957 8.338L71.7557 10.408V12.028L67.1117 8.878V7.888ZM71.8817 7.888L76.5437 4.558V6.196L73.4657 8.338L76.5437 10.408V12.028L71.8817 8.878V7.888ZM88.6414 15.43V13H79.0474V0.219999H81.0634V11.218H86.7694V0.219999H88.8034V11.218H90.4234V15.43H88.6414ZM92.4771 13V0.219999H97.8411C98.4171 0.219999 98.9451 0.339999 99.4251 0.579999C99.9051 0.819999 100.325 1.138 100.685 1.534C101.045 1.93 101.321 2.374 101.513 2.866C101.705 3.358 101.801 3.862 101.801 4.378C101.801 5.086 101.639 5.764 101.315 6.412C101.003 7.048 100.553 7.564 99.9651 7.96C99.3891 8.356 98.7171 8.554 97.9491 8.554H94.4931V13H92.4771ZM94.4931 6.772H97.8231C98.2071 6.772 98.5431 6.67 98.8311 6.466C99.1191 6.25 99.3411 5.962 99.4971 5.602C99.6651 5.242 99.7491 4.834 99.7491 4.378C99.7491 3.91 99.6531 3.496 99.4611 3.136C99.2691 2.776 99.0171 2.5 98.7051 2.308C98.4051 2.104 98.0751 2.002 97.7151 2.002H94.4931V6.772ZM103.71 13V0.219999H112.692V1.984H105.726V5.566H109.47C110.886 5.566 111.948 5.902 112.656 6.574C113.364 7.234 113.718 8.11 113.718 9.202C113.718 9.934 113.562 10.588 113.25 11.164C112.95 11.728 112.494 12.178 111.882 12.514C111.282 12.838 110.52 13 109.596 13H103.71ZM105.726 11.236H109.326C109.878 11.236 110.322 11.134 110.658 10.93C111.006 10.726 111.252 10.468 111.396 10.156C111.552 9.832 111.63 9.496 111.63 9.148C111.63 8.8 111.564 8.476 111.432 8.176C111.3 7.876 111.06 7.636 110.712 7.456C110.376 7.264 109.902 7.168 109.29 7.168H105.726V11.236ZM124.664 8.878L120.02 12.028V10.408L123.098 8.338L120.02 6.196V4.558L124.664 7.888V8.878ZM119.894 8.878L115.25 12.028V10.408L118.31 8.338L115.25 6.196V4.558L119.894 7.888V8.878ZM0.84 27V20.736H4.08C4.456 20.736 4.768 20.812 5.016 20.964C5.264 21.108 5.448 21.296 5.568 21.528C5.696 21.76 5.76 22.008 5.76 22.272C5.76 22.608 5.68 22.912 5.52 23.184C5.36 23.448 5.128 23.648 4.824 23.784C5.184 23.888 5.476 24.076 5.7 24.348C5.924 24.612 6.036 24.94 6.036 25.332C6.036 25.684 5.952 25.984 5.784 26.232C5.616 26.48 5.38 26.672 5.076 26.808C4.772 26.936 4.42 27 4.02 27H0.84ZM1.848 26.256H3.996C4.188 26.256 4.36 26.208 4.512 26.112C4.672 26.016 4.796 25.888 4.884 25.728C4.972 25.568 5.016 25.4 5.016 25.224C5.016 25.032 4.972 24.86 4.884 24.708C4.804 24.548 4.688 24.424 4.536 24.336C4.392 24.24 4.224 24.192 4.032 24.192H1.848V26.256ZM1.848 23.496H3.804C3.996 23.496 4.164 23.448 4.308 23.352C4.452 23.248 4.564 23.116 4.644 22.956C4.724 22.796 4.764 22.628 4.764 22.452C4.764 22.188 4.676 21.96 4.5 21.768C4.332 21.576 4.112 21.48 3.84 21.48H1.848V23.496ZM14.0385 27.06C13.4385 27.06 12.8945 26.94 12.4065 26.7C11.9185 26.46 11.4945 26.136 11.1345 25.728C10.7825 25.312 10.5105 24.848 10.3185 24.336C10.1265 23.816 10.0305 23.284 10.0305 22.74C10.0305 22.172 10.1305 21.632 10.3305 21.12C10.5385 20.6 10.8225 20.14 11.1825 19.74C11.5505 19.332 11.9785 19.012 12.4665 18.78C12.9545 18.54 13.4865 18.42 14.0625 18.42C14.6625 18.42 15.2065 18.544 15.6945 18.792C16.1825 19.04 16.6025 19.372 16.9545 19.788C17.3065 20.204 17.5785 20.668 17.7705 21.18C17.9625 21.692 18.0585 22.216 18.0585 22.752C18.0585 23.32 17.9585 23.864 17.7585 24.384C17.5585 24.896 17.2745 25.356 16.9065 25.764C16.5465 26.164 16.1225 26.48 15.6345 26.712C15.1465 26.944 14.6145 27.06 14.0385 27.06ZM11.1225 22.74C11.1225 23.172 11.1905 23.592 11.3265 24C11.4705 24.4 11.6705 24.756 11.9265 25.068C12.1825 25.38 12.4905 25.628 12.8505 25.812C13.2105 25.996 13.6105 26.088 14.0505 26.088C14.5065 26.088 14.9145 25.992 15.2745 25.8C15.6345 25.608 15.9385 25.352 16.1865 25.032C16.4425 24.712 16.6345 24.352 16.7625 23.952C16.8985 23.552 16.9665 23.148 16.9665 22.74C16.9665 22.308 16.8945 21.892 16.7505 21.492C16.6145 21.092 16.4145 20.736 16.1505 20.424C15.8945 20.104 15.5865 19.856 15.2265 19.68C14.8745 19.496 14.4825 19.404 14.0505 19.404C13.5945 19.404 13.1865 19.5 12.8265 19.692C12.4665 19.876 12.1585 20.128 11.9025 20.448C11.6545 20.768 11.4625 21.128 11.3265 21.528C11.1905 21.92 11.1225 22.324 11.1225 22.74ZM19.3205 27V20.736H20.3765V23.316H21.0725L23.0405 20.736H24.2405L21.9005 23.772L24.5165 27H23.2925L21.0725 24.288H20.3765V27H19.3205ZM27.0791 27V21.672H24.9191V20.736H30.2951V21.672H28.1351V27H27.0791ZM30.8293 27L32.6053 24.48C32.1973 24.4 31.8693 24.208 31.6213 23.904C31.3733 23.592 31.2493 23.176 31.2493 22.656C31.2493 22.28 31.3373 21.948 31.5133 21.66C31.6893 21.372 31.9333 21.144 32.2453 20.976C32.5653 20.808 32.9373 20.724 33.3613 20.724H35.9293V27H34.8733V24.648H33.6493L31.9933 27H30.8293ZM33.4333 23.868H34.8733V21.552H33.5533C33.1773 21.552 32.8773 21.66 32.6533 21.876C32.4293 22.084 32.3173 22.352 32.3173 22.68C32.3173 23.008 32.4093 23.288 32.5933 23.52C32.7853 23.752 33.0653 23.868 33.4333 23.868ZM40.5892 27.12C39.5572 27.12 38.7772 26.808 38.2492 26.184C37.7212 25.56 37.4572 24.68 37.4572 23.544C37.4572 22.768 37.5212 22.116 37.6492 21.588C37.7772 21.052 37.9692 20.612 38.2252 20.268C38.4812 19.916 38.7972 19.632 39.1732 19.416C39.5492 19.192 39.9812 19.008 40.4692 18.864L43.1212 18.06L43.1812 18.972L40.6012 19.752C40.1612 19.896 39.7932 20.08 39.4972 20.304C39.2012 20.528 38.9692 20.816 38.8012 21.168C38.6332 21.52 38.5212 21.972 38.4652 22.524C38.6732 22.1 38.9852 21.772 39.4012 21.54C39.8172 21.3 40.3012 21.18 40.8532 21.18C41.4452 21.18 41.9532 21.304 42.3772 21.552C42.8092 21.792 43.1372 22.132 43.3612 22.572C43.5932 23.004 43.7092 23.504 43.7092 24.072C43.7092 24.68 43.5892 25.212 43.3492 25.668C43.1092 26.124 42.7572 26.48 42.2932 26.736C41.8292 26.992 41.2612 27.12 40.5892 27.12ZM40.5892 26.208C41.2372 26.208 41.7372 26.02 42.0892 25.644C42.4492 25.26 42.6292 24.752 42.6292 24.12C42.6292 23.504 42.4532 23.004 42.1012 22.62C41.7492 22.236 41.2452 22.044 40.5892 22.044C40.2052 22.044 39.8572 22.124 39.5452 22.284C39.2412 22.444 38.9972 22.68 38.8132 22.992C38.6372 23.296 38.5492 23.672 38.5492 24.12C38.5492 24.52 38.6252 24.88 38.7772 25.2C38.9372 25.512 39.1692 25.76 39.4732 25.944C39.7772 26.12 40.1492 26.208 40.5892 26.208ZM48.3685 27.12C47.8565 27.12 47.4005 26.992 47.0005 26.736C46.6005 26.48 46.2845 26.156 46.0525 25.764V29.556H44.9965V20.736H45.9325V21.912C46.1805 21.528 46.5045 21.22 46.9045 20.988C47.3045 20.748 47.7405 20.628 48.2125 20.628C48.6445 20.628 49.0405 20.716 49.4005 20.892C49.7605 21.068 50.0725 21.308 50.3365 21.612C50.6005 21.916 50.8045 22.264 50.9485 22.656C51.1005 23.04 51.1765 23.444 51.1765 23.868C51.1765 24.46 51.0565 25.004 50.8165 25.5C50.5845 25.996 50.2565 26.392 49.8325 26.688C49.4085 26.976 48.9205 27.12 48.3685 27.12ZM48.0445 26.208C48.3565 26.208 48.6365 26.144 48.8845 26.016C49.1405 25.88 49.3565 25.704 49.5325 25.488C49.7165 25.264 49.8565 25.012 49.9525 24.732C50.0485 24.452 50.0965 24.164 50.0965 23.868C50.0965 23.556 50.0405 23.26 49.9285 22.98C49.8245 22.7 49.6725 22.452 49.4725 22.236C49.2805 22.02 49.0525 21.852 48.7885 21.732C48.5325 21.604 48.2525 21.54 47.9485 21.54C47.7565 21.54 47.5565 21.576 47.3485 21.648C47.1485 21.72 46.9565 21.824 46.7725 21.96C46.5885 22.088 46.4325 22.236 46.3045 22.404C46.1765 22.572 46.0925 22.752 46.0525 22.944V24.732C46.1725 25.004 46.3325 25.252 46.5325 25.476C46.7325 25.7 46.9645 25.88 47.2285 26.016C47.4925 26.144 47.7645 26.208 48.0445 26.208ZM52.4611 27V20.736H53.5171V22.872H55.0771C55.8131 22.872 56.3691 23.06 56.7451 23.436C57.1291 23.804 57.3211 24.288 57.3211 24.888C57.3211 25.288 57.2371 25.648 57.0691 25.968C56.9091 26.288 56.6691 26.54 56.3491 26.724C56.0291 26.908 55.6291 27 55.1491 27H52.4611ZM53.5171 26.172H55.0051C55.3011 26.172 55.5371 26.116 55.7131 26.004C55.8971 25.884 56.0331 25.728 56.1211 25.536C56.2091 25.344 56.2531 25.136 56.2531 24.912C56.2531 24.696 56.2131 24.496 56.1331 24.312C56.0531 24.128 55.9211 23.98 55.7371 23.868C55.5531 23.756 55.3011 23.7 54.9811 23.7H53.5171V26.172ZM61.2451 27.12C60.7731 27.12 60.3411 27.036 59.9491 26.868C59.5651 26.692 59.2291 26.452 58.9411 26.148C58.6611 25.844 58.4411 25.496 58.2811 25.104C58.1291 24.712 58.0531 24.296 58.0531 23.856C58.0531 23.264 58.1851 22.724 58.4491 22.236C58.7131 21.748 59.0851 21.36 59.5651 21.072C60.0451 20.776 60.6011 20.628 61.2331 20.628C61.8491 20.628 62.3851 20.768 62.8411 21.048C63.3051 21.32 63.6491 21.688 63.8731 22.152L62.8411 22.476C62.6811 22.18 62.4571 21.952 62.1691 21.792C61.8811 21.624 61.5611 21.54 61.2091 21.54C60.8251 21.54 60.4731 21.64 60.1531 21.84C59.8411 22.04 59.5931 22.316 59.4091 22.668C59.2251 23.012 59.1331 23.408 59.1331 23.856C59.1331 24.296 59.2251 24.696 59.4091 25.056C59.6011 25.408 59.8531 25.688 60.1651 25.896C60.4851 26.104 60.8371 26.208 61.2211 26.208C61.4691 26.208 61.7051 26.164 61.9291 26.076C62.1611 25.988 62.3611 25.872 62.5291 25.728C62.7051 25.576 62.8251 25.412 62.8891 25.236L63.9211 25.548C63.7931 25.852 63.5971 26.124 63.3331 26.364C63.0771 26.596 62.7691 26.78 62.4091 26.916C62.0571 27.052 61.6691 27.12 61.2451 27.12ZM65.1056 27V20.736H66.1616V23.316H66.8576L68.8256 20.736H70.0256L67.6856 23.772L70.3016 27H69.0776L66.8576 24.288H66.1616V27H65.1056ZM73.7482 27.12C73.2762 27.12 72.8482 27.036 72.4642 26.868C72.0802 26.692 71.7482 26.456 71.4682 26.16C71.1882 25.856 70.9722 25.508 70.8202 25.116C70.6682 24.724 70.5922 24.312 70.5922 23.88C70.5922 23.44 70.6682 23.024 70.8202 22.632C70.9722 22.24 71.1882 21.896 71.4682 21.6C71.7482 21.296 72.0802 21.06 72.4642 20.892C72.8562 20.716 73.2842 20.628 73.7482 20.628C74.2202 20.628 74.6482 20.716 75.0322 20.892C75.4162 21.06 75.7482 21.296 76.0282 21.6C76.3162 21.896 76.5362 22.24 76.6882 22.632C76.8402 23.024 76.9162 23.44 76.9162 23.88C76.9162 24.312 76.8402 24.724 76.6882 25.116C76.5362 25.508 76.3202 25.856 76.0402 26.16C75.7602 26.456 75.4242 26.692 75.0322 26.868C74.6482 27.036 74.2202 27.12 73.7482 27.12ZM71.6722 23.892C71.6722 24.324 71.7642 24.716 71.9482 25.068C72.1402 25.42 72.3922 25.7 72.7042 25.908C73.0162 26.108 73.3642 26.208 73.7482 26.208C74.1322 26.208 74.4802 26.104 74.7922 25.896C75.1122 25.688 75.3642 25.408 75.5482 25.056C75.7402 24.696 75.8362 24.3 75.8362 23.868C75.8362 23.436 75.7402 23.044 75.5482 22.692C75.3642 22.34 75.1122 22.06 74.7922 21.852C74.4802 21.644 74.1322 21.54 73.7482 21.54C73.3642 21.54 73.0162 21.648 72.7042 21.864C72.3922 22.072 72.1402 22.352 71.9482 22.704C71.7642 23.056 71.6722 23.452 71.6722 23.892ZM78.1838 27V20.736H79.2758L81.6038 24.84L83.9438 20.736H85.0118V27H84.0038V22.26L81.9398 25.884H81.2678L79.1918 22.26V27H78.1838ZM93.1224 27.12C92.6104 27.12 92.1544 26.992 91.7544 26.736C91.3544 26.48 91.0384 26.156 90.8064 25.764V29.556H89.7504V20.736H90.6864V21.912C90.9344 21.528 91.2584 21.22 91.6584 20.988C92.0584 20.748 92.4944 20.628 92.9664 20.628C93.3984 20.628 93.7944 20.716 94.1544 20.892C94.5144 21.068 94.8264 21.308 95.0904 21.612C95.3544 21.916 95.5584 22.264 95.7024 22.656C95.8544 23.04 95.9304 23.444 95.9304 23.868C95.9304 24.46 95.8104 25.004 95.5704 25.5C95.3384 25.996 95.0104 26.392 94.5864 26.688C94.1624 26.976 93.6744 27.12 93.1224 27.12ZM92.7984 26.208C93.1104 26.208 93.3904 26.144 93.6384 26.016C93.8944 25.88 94.1104 25.704 94.2864 25.488C94.4704 25.264 94.6104 25.012 94.7064 24.732C94.8024 24.452 94.8504 24.164 94.8504 23.868C94.8504 23.556 94.7944 23.26 94.6824 22.98C94.5784 22.7 94.4264 22.452 94.2264 22.236C94.0344 22.02 93.8064 21.852 93.5424 21.732C93.2864 21.604 93.0064 21.54 92.7024 21.54C92.5104 21.54 92.3104 21.576 92.1024 21.648C91.9024 21.72 91.7104 21.824 91.5264 21.96C91.3424 22.088 91.1864 22.236 91.0584 22.404C90.9304 22.572 90.8464 22.752 90.8064 22.944V24.732C90.9264 25.004 91.0864 25.252 91.2864 25.476C91.4864 25.7 91.7184 25.88 91.9824 26.016C92.2464 26.144 92.5184 26.208 92.7984 26.208ZM96.735 25.188C96.735 24.788 96.847 24.444 97.071 24.156C97.303 23.86 97.619 23.632 98.019 23.472C98.419 23.312 98.883 23.232 99.411 23.232C99.691 23.232 99.987 23.256 100.299 23.304C100.611 23.344 100.887 23.408 101.127 23.496V23.04C101.127 22.56 100.983 22.184 100.695 21.912C100.407 21.632 99.999 21.492 99.471 21.492C99.127 21.492 98.795 21.556 98.475 21.684C98.163 21.804 97.831 21.98 97.479 22.212L97.095 21.468C97.503 21.188 97.911 20.98 98.319 20.844C98.727 20.7 99.151 20.628 99.591 20.628C100.391 20.628 101.023 20.852 101.487 21.3C101.951 21.74 102.183 22.356 102.183 23.148V25.8C102.183 25.928 102.207 26.024 102.255 26.088C102.311 26.144 102.399 26.176 102.519 26.184V27C102.415 27.016 102.323 27.028 102.243 27.036C102.171 27.044 102.111 27.048 102.063 27.048C101.815 27.048 101.627 26.98 101.499 26.844C101.379 26.708 101.311 26.564 101.295 26.412L101.271 26.016C100.999 26.368 100.643 26.64 100.203 26.832C99.763 27.024 99.327 27.12 98.895 27.12C98.479 27.12 98.107 27.036 97.779 26.868C97.451 26.692 97.195 26.46 97.011 26.172C96.827 25.876 96.735 25.548 96.735 25.188ZM100.815 25.632C100.911 25.52 100.987 25.408 101.043 25.296C101.099 25.176 101.127 25.076 101.127 24.996V24.216C100.879 24.12 100.619 24.048 100.347 24C100.075 23.944 99.807 23.916 99.543 23.916C99.007 23.916 98.571 24.024 98.235 24.24C97.907 24.448 97.743 24.736 97.743 25.104C97.743 25.304 97.795 25.5 97.899 25.692C98.011 25.876 98.171 26.028 98.379 26.148C98.595 26.268 98.859 26.328 99.171 26.328C99.499 26.328 99.811 26.264 100.107 26.136C100.403 26 100.639 25.832 100.815 25.632ZM103.86 27V20.748H104.916V25.584L108.42 20.736H109.38V27H108.324V22.26L104.868 27H103.86ZM106.632 20.028C106.056 20.028 105.62 19.892 105.324 19.62C105.028 19.34 104.88 18.996 104.88 18.588H105.624C105.624 18.812 105.7 19 105.852 19.152C106.012 19.296 106.272 19.368 106.632 19.368C106.984 19.368 107.232 19.3 107.376 19.164C107.52 19.02 107.608 18.828 107.64 18.588H108.384C108.384 18.996 108.236 19.34 107.94 19.62C107.644 19.892 107.208 20.028 106.632 20.028ZM113.803 27.12C113.331 27.12 112.903 27.036 112.519 26.868C112.135 26.692 111.803 26.456 111.523 26.16C111.243 25.856 111.027 25.508 110.875 25.116C110.723 24.724 110.647 24.312 110.647 23.88C110.647 23.44 110.723 23.024 110.875 22.632C111.027 22.24 111.243 21.896 111.523 21.6C111.803 21.296 112.135 21.06 112.519 20.892C112.911 20.716 113.339 20.628 113.803 20.628C114.275 20.628 114.703 20.716 115.087 20.892C115.471 21.06 115.803 21.296 116.083 21.6C116.371 21.896 116.591 22.24 116.743 22.632C116.895 23.024 116.971 23.44 116.971 23.88C116.971 24.312 116.895 24.724 116.743 25.116C116.591 25.508 116.375 25.856 116.095 26.16C115.815 26.456 115.479 26.692 115.087 26.868C114.703 27.036 114.275 27.12 113.803 27.12ZM111.727 23.892C111.727 24.324 111.819 24.716 112.003 25.068C112.195 25.42 112.447 25.7 112.759 25.908C113.071 26.108 113.419 26.208 113.803 26.208C114.187 26.208 114.535 26.104 114.847 25.896C115.167 25.688 115.419 25.408 115.603 25.056C115.795 24.696 115.891 24.3 115.891 23.868C115.891 23.436 115.795 23.044 115.603 22.692C115.419 22.34 115.167 22.06 114.847 21.852C114.535 21.644 114.187 21.54 113.803 21.54C113.419 21.54 113.071 21.648 112.759 21.864C112.447 22.072 112.195 22.352 112.003 22.704C111.819 23.056 111.727 23.452 111.727 23.892ZM118.238 27V20.736H119.294V23.328H122.558V20.736H123.614V27H122.558V24.264H119.294V27H118.238ZM128.089 27.12C127.617 27.12 127.185 27.036 126.793 26.868C126.409 26.692 126.073 26.456 125.785 26.16C125.505 25.856 125.285 25.508 125.125 25.116C124.973 24.724 124.897 24.308 124.897 23.868C124.897 23.276 125.033 22.736 125.305 22.248C125.577 21.76 125.953 21.368 126.433 21.072C126.921 20.776 127.477 20.628 128.101 20.628C128.733 20.628 129.281 20.78 129.745 21.084C130.217 21.38 130.581 21.772 130.837 22.26C131.101 22.74 131.233 23.26 131.233 23.82C131.233 23.9 131.229 23.98 131.221 24.06C131.221 24.132 131.217 24.188 131.209 24.228H126.013C126.045 24.636 126.157 25 126.349 25.32C126.549 25.632 126.805 25.88 127.117 26.064C127.429 26.24 127.765 26.328 128.125 26.328C128.509 26.328 128.869 26.232 129.205 26.04C129.549 25.848 129.785 25.596 129.913 25.284L130.825 25.536C130.689 25.84 130.485 26.112 130.213 26.352C129.949 26.592 129.633 26.78 129.265 26.916C128.905 27.052 128.513 27.12 128.089 27.12ZM125.977 23.496H130.249C130.217 23.088 130.101 22.728 129.901 22.416C129.701 22.104 129.445 21.86 129.133 21.684C128.821 21.508 128.477 21.42 128.101 21.42C127.733 21.42 127.393 21.508 127.081 21.684C126.769 21.86 126.513 22.104 126.313 22.416C126.121 22.728 126.009 23.088 125.977 23.496Z" fill="#02550A"/>
</svg>
